Patient4_TMGait_0pt4_01_right_10_EMG.mot
version=1
nRows=16
nColumns=33
inDegrees=no
endheader
time	1LAddLong	2LGlutMax	3LGlutMed	4LIliopsoas	5LSemiMemb	6LBicFemLong	7LRecFem	8LVastMed	9LVastLat	10LGasMed	11LTibAnt	12lTibPost	13LPeroneusLong	14LSol	15LExtDigLong	16LFlexDigLong	17RAddLong	18RGlutMax	19RGlutMed	20RIliopsoas	21RSemiMemb	22RBicFemLong	23RRecFem	24RVastMed	25RVastLat	26RGasMed	27RTibAnt	28RTibPost	29RPeroneusLong	30RSol	31RExtDigLong	32RFlexDigLong
14.065	-0.00351	0.034943	0.043335	-0.012207	-0.062256	-0.06546	0.0177	0.004272	0.009308	-0.013733	0.080719	0.023651	-0.000305	-0.01297	0.005341	-0.001984	0.00351	-0.10025	0.015564	-0.048676	0.031433	0.15823	-0.071411	-0.037537	0.032806	0.023041	-0.074768	-0.002747	-0.017853	-0.08255	0.002747	0.003357
14.066	-0.000763	0.040588	0.035706	0.000763	-0.09079	-0.22675	0.021973	0.002136	0.03006	0.004578	-0.04425	0.02182	0.28549	0.1004	0.006561	-0.004272	-0.002594	-0.085144	0.011292	-0.079956	-0.020294	0.16251	-0.065613	-0.02594	0.02182	0.017242	-0.007477	-0.003052	-0.97824	-0.050964	0.001068	0.002136
14.067	0.008545	0.0383	0.020142	0.006561	0.02182	-0.43839	0.011597	-0.002289	0.051422	0.026703	-0.093536	0.026245	-0.2507	0.17853	-0.008545	-0.005341	-0.006104	-0.022888	0.031281	0.005341	-0.061951	0.14389	-0.009003	-0.042572	0.027771	0.018158	0.05661	-0.00473	-0.61066	-0.015106	0.003204	-0.000305
14.068	0.016785	0.068054	0.025024	-0.012817	0.10925	-0.45578	0.015259	-0.004578	0.071869	0.071564	0.006256	0.033569	-0.24048	0.10513	-0.001373	-0.001526	-0.009918	0.005341	0.077362	0.062561	-0.12085	0.13718	0.07782	-0.08316	0.037231	0.018768	0.070496	-0.004578	0.027618	0.034027	0.000916	-0.004578
14.069	0.019226	0.10391	0.03006	0.000153	0.048828	-0.16235	0.010223	-0.001984	0.08194	0.041809	0.002136	0.027618	0.112	0.054932	-0.026398	-0.010071	-0.026245	0.03006	0.010223	0.05249	-0.14481	0.15656	0.091095	-0.039215	0.027771	0.015564	0.072021	-0.010223	-0.15152	0.027008	0.002136	0
14.07	0.00473	0.10513	0.012665	-0.000916	-0.002899	-0.028534	0.034332	0.008392	0.066223	-0.00946	-0.013275	0.008087	0.14374	0.14755	-0.034485	-0.005188	-0.037994	-0.016785	0.028076	0.015869	-0.018768	0.1358	0.067291	0.009613	0.046387	0.019684	0.069275	-0.005798	-0.74554	0.02243	0.003204	0.000305
14.071	0.005188	0.15366	0.039063	0.001831	-0.031128	-0.036774	0.059509	0.000305	-0.006866	-0.084534	-0.041809	0.009766	0.022888	0.14313	-0.021667	-0.017853	-0.025787	-0.01297	-0.004272	0.039978	0.14389	0.11932	0.036316	0.005493	0.028534	0.018616	0.036621	-0.005951	-0.95032	0.046234	0.00061	-0.005798
14.072	0.007019	0.11643	0.029144	-0.010681	-0.027771	-0.030975	0.060577	-0.001373	-0.11826	-0.1445	-0.084534	0.02121	0.038452	-0.001831	-0.010223	-0.000916	-0.000763	-0.032196	-0.006714	0.036163	0.13565	0.094757	-0.006409	-0.030823	0.023499	0.012207	0.026093	-0.003815	-0.4071	0.005646	0.006866	-0.000458
14.073	-0.01358	0.12726	-0.009613	-0.001373	-0.028534	0.13138	0.011749	0.010223	0.002594	-0.19257	-0.085754	0.013123	0.073547	-0.1648	-0.000305	-0.008545	0.007477	-0.025482	0.037842	0.040131	-0.007019	0.10971	-0.011902	-0.040131	0.001221	0.010071	0.024719	-0.006409	0.057373	-0.043945	0.002747	-0.003357
14.074	-0.010071	0.15015	-0.000916	0.0177	-0.016937	0.072784	-0.025482	0.00473	0.021057	-0.12268	-0.035706	0.023346	0.079041	-0.224	-0.011292	0.00824	0.027008	-0.019989	0.091095	0.022125	-0.1471	0.19073	0.001678	-0.083313	0.009766	0.004272	0.022125	-0.007477	0.21744	-0.057068	-0.00061	0.002594
14.075	0.009155	0.14618	0.004578	0.006104	0.031433	0.043182	-0.062714	0.00351	0.033875	0.3656	0.041046	0.019226	0.12512	-0.17868	0.017395	0.009155	0.007935	0.021057	0.23941	-0.008087	-0.2272	0.18997	0.037231	-0.091095	0.005035	-0.001373	0.038605	-0.004578	0.12573	-0.055237	0.001526	0.006104
14.076	0.013733	0.1265	0.005646	-0.002747	0.028229	0.25375	-0.067902	-0.000458	0.052948	0.30609	0.19272	0.009613	-0.018768	0.032196	0.31952	-0.04364	0.012512	-0.02243	0.091705	0.000153	-0.19409	0.15518	0.023651	-0.09964	0.007324	-0.005341	0.033569	-0.007782	0.15793	-0.046387	-0.000305	0.010223
14.077	0.019836	0.16312	0.016022	0.009613	0.012054	0.09964	0.0354	-0.011749	0.10696	-0.00946	0.19165	-0.00351	-0.15366	0.030518	0.20111	-0.02121	-0.007629	-0.019379	-0.081635	0.007019	-0.032349	0.1535	0.013275	-0.019684	0.007935	-0.009003	0.002747	-0.003815	0.14328	-0.049744	0	0.004425
14.078	0.029297	0.11841	-0.031433	0.010986	0.016174	0.012207	0.052948	-0.006104	0.03952	0.044556	0.13336	-0.004272	-0.21164	-0.047607	0.12512	0.089874	-0.037994	0.035706	0.20767	-0.022125	0.29297	0.16556	-0.032501	0.00885	0.018616	-0.020142	-0.028076	-0.007782	-0.056915	-0.069122	-0.000153	-0.002136
14.079	0.024414	0.12787	-0.046082	-0.000458	0.079041	-0.20935	0.056458	-0.002747	-0.049896	0.40436	0.055847	-0.011444	-0.075989	-0.023499	-0.10925	-0.11292	-0.009003	0.097046	0.14267	-0.032959	0.13886	0.091553	-0.043182	-0.047913	0.014648	-0.028992	-0.087433	-0.007629	-0.10651	-0.054169	-0.001526	-0.004883
14.08	0.013428	0.19913	-0.022736	-0.008545	0.076752	-0.2507	0.086975	-0.007782	0.037384	1.0097	-0.22675	0.012665	0.15411	-0.003662	-0.17609	-0.025024	-0.00473	0.055695	-0.29526	0.040741	0.054169	0.097351	-0.033417	-0.044708	0.003357	-0.036011	-0.091705	-0.010376	-0.4631	-0.057983	0.00061	-0.000305
